<?xml version="1.0" encoding="UTF-8"?>
<svg version="1.1" xmlns="http://www.w3.org/2000/svg" width="232" height="232">
<path d="M0 0 C2.31291668 0.0345248 4.62202894 0.0205163 6.93505859 0.0012207 C17.17968311 0.01170525 27.02283302 0.98708335 36.34570312 5.68847656 C38.37621255 6.7997734 38.37621255 6.7997734 41.68115234 7.22192383 C46.96670496 8.44698649 50.97668465 11.58552215 55.36474609 14.65551758 C57.4949126 16.12388478 59.51254266 17.36864113 61.80615234 18.53442383 C71.84961284 24.67209413 80.90258308 34.03978531 86.18115234 44.59692383 C86.18115234 45.25692383 86.18115234 45.91692383 86.18115234 46.59692383 C86.84115234 46.59692383 87.50115234 46.59692383 88.18115234 46.59692383 C91.90985661 51.57199164 94.71818661 57.06589439 96.40966797 63.04150391 C97.15371914 65.62083789 97.15371914 65.62083789 98.1706543 68.16455078 C101.62325077 77.66614075 101.82754907 86.67924047 101.75756836 96.69799805 C101.7437066 99.46110822 101.77787941 102.22081646 101.81591797 104.98364258 C101.86298935 116.20931947 100.45181053 125.18816041 96.18115234 135.59692383 C95.69173734 137.03096703 95.20927071 138.46747845 94.74365234 139.90942383 C92.85391831 144.81423912 89.99636485 149.18077119 87.18115234 153.59692383 C86.63587891 154.46704102 86.09060547 155.3371582 85.52880859 156.23364258 C82.49531573 160.95817792 82.49531573 160.95817792 81.18115234 162.59692383 C80.52115234 162.59692383 79.86115234 162.59692383 79.18115234 162.59692383 C78.84083984 163.40129883 78.84083984 163.40129883 78.49365234 164.22192383 C75.32657446 169.95282667 71.60935696 173.09120835 66.18115234 176.59692383 C65.37677734 177.42192383 64.57240234 178.24692383 63.74365234 179.09692383 C61.3644512 181.41809568 59.10554081 182.94125655 56.18505859 184.49926758 C53.86736843 185.76880157 51.66457305 187.18466573 49.43115234 188.59692383 C44.18833374 191.72063911 39.02879777 193.86693582 33.18115234 195.59692383 C31.92044922 195.97075195 30.65974609 196.34458008 29.36083984 196.72973633 C9.28049549 202.16140059 -16.05329401 202.60153417 -34.81884766 192.59692383 C-35.72634766 192.32879883 -36.63384766 192.06067383 -37.56884766 191.78442383 C-41.43370135 190.37226575 -44.66695015 188.40686322 -48.15478516 186.24145508 C-49.93223081 185.14423423 -51.72972133 184.07884812 -53.54541016 183.04614258 C-58.29595097 180.3345507 -61.55438362 178.07044862 -64.81884766 173.59692383 C-65.60259766 173.16379883 -66.38634766 172.73067383 -67.19384766 172.28442383 C-70.46774309 170.17977676 -72.17114988 167.65916377 -74.40478516 164.51489258 C-75.83560971 162.46453627 -75.83560971 162.46453627 -78.00634766 160.47192383 C-80.31706844 158.08152302 -81.34845988 155.59215819 -82.81884766 152.59692383 C-83.97532821 150.8194215 -85.14311701 149.04925222 -86.31884766 147.28442383 C-89.40887833 142.45827528 -91.36548114 138.11141165 -92.81884766 132.59692383 C-93.15787109 131.36973633 -93.49689453 130.14254883 -93.84619141 128.87817383 C-99.16067212 109.45071572 -100.13358277 89.93173135 -93.81884766 70.59692383 C-93.49529297 69.41743164 -93.17173828 68.23793945 -92.83837891 67.02270508 C-90.65780785 59.21715072 -87.77450945 53.24803545 -82.69384766 46.97192383 C-80.70189876 44.64227206 -80.70189876 44.64227206 -79.50634766 41.72192383 C-77.26890076 37.57850365 -74.22780216 34.79470416 -70.81884766 31.59692383 C-68.16653295 29.00775947 -65.79524739 26.56545681 -63.56884766 23.59692383 C-60.95231076 20.39350015 -57.91739855 18.81735384 -54.27197266 16.95239258 C-51.62132476 15.48778299 -49.30282522 13.788032 -46.88134766 11.97192383 C-42.93523356 9.16794689 -39.50502457 7.52574442 -34.81079102 6.40087891 C-32.0045141 5.64681364 -29.31366058 4.70458699 -26.57980347 3.72593689 C-17.64150036 0.63227212 -9.41686276 -0.15498128 0 0 Z " fill="#2C2A4F" transform="translate(113.81884765625,16.403076171875)"/>
<path d="M0 0 C0 0.66 0 1.32 0 2 C1.52064794 2.45894807 3.04152948 2.91712214 4.5625 3.375 C5.40941406 3.63023438 6.25632813 3.88546875 7.12890625 4.1484375 C8.07636719 4.42945312 9.02382812 4.71046875 10 5 C11.06734375 5.32742187 12.1346875 5.65484375 13.234375 5.9921875 C16.85593288 6.96144262 20.43206261 7.64857202 24.12011719 8.29394531 C33.33586943 9.930977 40.93522127 12.082452 49 17 C49 17.66 49 18.32 49 19 C49.7425 19.226875 50.485 19.45375 51.25 19.6875 C55.48081331 21.70675181 57.39482537 24.45778078 59.08984375 28.77734375 C61.29149707 36.57289734 61.01161282 44.89447412 57.26953125 52.140625 C55.23508403 55.1203077 52.91305953 56.859793 50 59 C49.175 59.886875 48.35 60.77375 47.5 61.6875 C44.75117804 64.23016032 42.59396768 65.08061292 39 66 C39 66.66 39 67.32 39 68 C36.95990245 68.65077296 34.91784331 69.29539824 32.875 69.9375 C31.16957031 70.47697266 31.16957031 70.47697266 29.4296875 71.02734375 C13.72084956 75.48235588 -1.34863959 72.49321654 -16 66 C-19 64 -19 64 -20.375 61.625 C-21.8642893 58.84193234 -21.8642893 58.84193234 -24.625 57.125 C-27 55 -27 55 -28.0625 51.5 C-28 48 -28 48 -26.625 45.5625 C-22.69490132 43.22315555 -19.45956422 43.1690253 -15 44 C-12.26678228 45.10592625 -9.73874627 46.37412708 -7.1640625 47.80859375 C-0.35187075 51.55898813 9.68561686 51.03695635 17.13671875 49.24609375 C21.32269308 47.650543 25.62945919 45.95090135 28 42 C28.48582895 38.4769504 28.48582895 38.4769504 27 35 C22.707069 30.76127267 18.18370832 29.66985553 12.3515625 29.2890625 C3.85199532 28.24426521 -5.29910895 23.25030168 -10.89453125 16.82421875 C-13.31994578 13.44454276 -14.84933191 10.79854086 -15.625 6.6875 C-15 4 -15 4 -13.6875 1.625 C-9.38906162 -0.97405576 -4.89867185 -0.30405549 0 0 Z " fill="#E14558" transform="translate(111,92)"/>
<path d="M0 0 C0 0.66 0 1.32 0 2 C0.9075 1.87625 1.815 1.7525 2.75 1.625 C8.66975159 1.58853336 14.10231586 4.94545041 19 8 C19.99 9.485 19.99 9.485 21 11 C21.99 11.33 22.98 11.66 24 12 C25.60546875 13.890625 25.60546875 13.890625 27.1875 16.25 C27.71730469 17.01828125 28.24710937 17.7865625 28.79296875 18.578125 C30.17335071 21.34782343 30.42622889 22.94619537 30 26 C27.41791457 28.90484611 25.75839464 30.71019051 21.890625 31.34765625 C19.0086634 31.38446963 16.60460508 31.30230254 14 30 C14 29.34 14 28.68 14 28 C13.43337646 27.88696533 12.86675293 27.77393066 12.28295898 27.6574707 C9.73373182 26.92331727 7.77121666 25.79995534 5.47265625 24.48046875 C-0.26127498 21.56567658 -5.20939358 21.2156667 -11.5625 21.3125 C-13.02719727 21.27092773 -13.02719727 21.27092773 -14.52148438 21.22851562 C-21.12932571 21.25061543 -25.01329594 22.65312851 -30.23803711 26.71166992 C-32 28 -32 28 -34 28 C-34 28.99 -34 29.98 -34 31 C-34.48726562 31.45503906 -34.97453125 31.91007812 -35.4765625 32.37890625 C-37.54528703 34.58024133 -37.40186297 35.9601871 -37.375 38.9375 C-37.38273437 39.79214844 -37.39046875 40.64679688 -37.3984375 41.52734375 C-36.92997823 44.43454685 -35.83703214 45.74987863 -34 48 C-34 48.66 -34 49.32 -34 50 C-33.278125 50.268125 -32.55625 50.53625 -31.8125 50.8125 C-26.67676762 52.98092034 -23.01855761 55.19266751 -20 60 C-19.50330773 63.4768459 -19.57478246 65.25080718 -21.3125 68.3125 C-23.90099622 70.90099622 -25.95257192 70.99750379 -29.5625 71.1875 C-40.81225079 71.0017243 -50.40332547 67.20379562 -59 60 C-63 55.69230769 -63 55.69230769 -63 52 C-63.66 52 -64.32 52 -65 52 C-69.1178133 44.79382672 -68.97900744 36.73007296 -67.6015625 28.66796875 C-65.72382752 22.68116436 -61.41650277 17.34868699 -57 13 C-54.74609375 12.21484375 -54.74609375 12.21484375 -53 12 C-53 11.34 -53 10.68 -53 10 C-47.70588235 6 -47.70588235 6 -44 6 C-44 5.34 -44 4.68 -44 4 C-40.68245534 2.94120915 -37.34962779 1.9523907 -34 1 C-33.26652344 0.78730469 -32.53304687 0.57460938 -31.77734375 0.35546875 C-22.09558175 -2.01801435 -9.71565252 -2.46340074 0 0 Z " fill="#3F96C2" transform="translate(126,61)"/>
<path d="M0 0 C0 0.66 0 1.32 0 2 C-0.59167969 1.9071875 -1.18335937 1.814375 -1.79296875 1.71875 C-4.39445198 1.48109411 -6.44509075 1.41797712 -9 2 C-10.84103716 3.95690664 -11.9262741 5.85254819 -13.125 8.25 C-13.41375 8.8275 -13.7025 9.405 -14 10 C-14.33 10 -14.66 10 -15 10 C-15.30375856 6.65865579 -15.32796316 4.59345714 -13.6875 1.625 C-9.38906162 -0.97405576 -4.89867185 -0.30405549 0 0 Z " fill="#D77F3A" transform="translate(111,92)"/>
</svg>
